<svg width="16" height="17" viewBox="0 0 16 17" fill="none" xmlns="http://www.w3.org/2000/svg">
<g id="bean">
<path id="Vector" d="M8.50879 16.798C6.60622 17.2907 4.74977 16.8821 2.93945 15.5722C1.12912 14.2624 0.154772 12.6202 0.0164037 10.6458C-0.121965 8.67907 0.615045 6.57037 2.22742 4.31967C3.8398 2.06896 5.59535 0.696327 7.49408 0.201752C9.39281 -0.290891 11.2483 0.118676 13.0605 1.43046C14.8728 2.74224 15.8471 4.38439 15.9836 6.35689C16.1219 8.32553 15.3859 10.4333 13.7754 12.6801C12.165 14.927 10.4094 16.2986 8.50879 16.7951" fill="#6B7561"/>
<path id="Vector_2" d="M8.50879 16.798C6.60622 17.2907 4.74977 16.8821 2.93945 15.5722C1.12912 14.2624 0.154772 12.6202 0.0164037 10.6458C-0.121965 8.67907 0.615045 6.57037 2.22742 4.31967C3.8398 2.06896 5.59535 0.696327 7.49408 0.201752C9.39281 -0.290891 11.2483 0.118676 13.0605 1.43046C14.8728 2.74224 15.8471 4.38439 15.9836 6.35689C16.1219 8.32553 15.3859 10.4333 13.7754 12.6801C12.165 14.927 10.4094 16.2986 8.50879 16.7951M14.9026 6.44093C14.8315 4.76981 14.0205 3.37205 12.4696 2.24767C10.9187 1.12328 9.34284 0.793888 7.74199 1.25948C6.13922 1.72122 4.60948 2.96925 3.15276 5.00358C1.69605 7.0379 1.00325 8.89256 1.07435 10.5675C1.14738 12.2425 1.95837 13.6403 3.50734 14.7608C5.0563 15.8813 6.63216 16.2117 8.23493 15.7519C9.8377 15.2882 11.3684 14.0392 12.827 12.0049C14.2857 9.97057 14.9775 8.11592 14.9026 6.44093Z" fill="#4D5644"/>
<path id="Vector_3" d="M2.64258 15.1114C2.64258 15.0563 2.74347 9.66621 7.72475 8.0231C11.9248 6.6379 12.0978 1.93751 12.1007 1.89404L13.2681 1.92592C13.2681 1.98098 13.0635 7.49858 8.07931 9.13879C3.90519 10.5153 3.80142 14.9346 3.79854 15.123L2.64258 15.1114Z" fill="#4D5644"/>
</g>
</svg>
