<svg width="24" height="25" viewBox="0 0 24 25" fill="none" xmlns="http://www.w3.org/2000/svg">
<g id="Checkbox">
<rect id="Rectangle 14" x="0.5" y="1" width="23" height="23" stroke="#C8CAC8"/>
<path id="Vector" d="M9.13004 15.1414L17.5964 6.88484C17.8595 6.62828 18.1943 6.5 18.6009 6.5C19.0075 6.5 19.3423 6.62828 19.6054 6.88484C19.8685 7.1414 20 7.46793 20 7.86443C20 8.26093 19.8685 8.58746 19.6054 8.84402L10.1345 18.0802C9.84753 18.3601 9.51271 18.5 9.13004 18.5C8.74738 18.5 8.41256 18.3601 8.12556 18.0802L4.39462 14.4417C4.13154 14.1851 4 13.8586 4 13.4621C4 13.0656 4.13154 12.7391 4.39462 12.4825C4.6577 12.2259 4.99253 12.0977 5.3991 12.0977C5.80568 12.0977 6.14051 12.2259 6.40359 12.4825L9.13004 15.1414Z" fill="#0F100F"/>
</g>
</svg>
