<svg width="16" height="16" viewBox="0 0 16 16" fill="none" xmlns="http://www.w3.org/2000/svg">
<g id="Ic_cross">
<path id="Vector" d="M14.2981 15.5286L0.471546 1.70213C0.346534 1.57712 0.291477 1.39239 0.318487 1.18859C0.345497 0.984782 0.452362 0.778595 0.615572 0.615385C0.778783 0.452175 0.984969 0.34531 1.18877 0.3183C1.39258 0.29129 1.5773 0.346346 1.70232 0.471358L15.5288 14.2979C15.6538 14.4229 15.7089 14.6076 15.6819 14.8114C15.6549 15.0152 15.548 15.2214 15.3848 15.3846C15.2216 15.5478 15.0154 15.6547 14.8116 15.6817C14.6078 15.7087 14.4231 15.6537 14.2981 15.5286Z" fill="black"/>
<path id="Vector_2" d="M0.471357 14.2976L14.2979 0.471058C14.4229 0.346046 14.6076 0.290988 14.8114 0.317998C15.0152 0.345009 15.2214 0.451874 15.3846 0.615084C15.5478 0.778294 15.6547 0.98448 15.6817 1.18828C15.7087 1.39209 15.6537 1.57682 15.5286 1.70183L1.70213 15.5283C1.57711 15.6534 1.39239 15.7084 1.18858 15.6814C0.984779 15.6544 0.778594 15.5475 0.615384 15.3843C0.452174 15.2211 0.345308 15.0149 0.318298 14.8111C0.291287 14.6073 0.346345 14.4226 0.471357 14.2976Z" fill="black"/>
</g>
</svg>
