<svg width="24" height="25" viewBox="0 0 24 25" fill="none" xmlns="http://www.w3.org/2000/svg">
<g id="ic_info">
<path id="Vector" d="M12 2.75C10.0716 2.75 8.18657 3.32183 6.58319 4.39317C4.97982 5.46451 3.73013 6.98726 2.99218 8.76884C2.25422 10.5504 2.06114 12.5108 2.43735 14.4021C2.81355 16.2934 3.74215 18.0307 5.10571 19.3943C6.46928 20.7579 8.20656 21.6865 10.0979 22.0627C11.9892 22.4389 13.9496 22.2458 15.7312 21.5078C17.5127 20.7699 19.0355 19.5202 20.1068 17.9168C21.1782 16.3134 21.75 14.4284 21.75 12.5C21.7475 9.9149 20.7195 7.43639 18.8916 5.60845C17.0636 3.78051 14.5851 2.75248 12 2.75ZM12 20.75C10.3683 20.75 8.77326 20.2661 7.41655 19.3596C6.05984 18.4531 5.00242 17.1646 4.378 15.6571C3.75358 14.1496 3.5902 12.4908 3.90853 10.8905C4.22685 9.29016 5.01259 7.82015 6.16637 6.66637C7.32016 5.51259 8.79017 4.72685 10.3905 4.40852C11.9909 4.09019 13.6497 4.25357 15.1571 4.87799C16.6646 5.50242 17.9531 6.55984 18.8596 7.91655C19.7661 9.27325 20.25 10.8683 20.25 12.5C20.2475 14.6873 19.3775 16.7843 17.8309 18.3309C16.2843 19.8775 14.1873 20.7475 12 20.75ZM13.5 17C13.5 17.1989 13.421 17.3897 13.2803 17.5303C13.1397 17.671 12.9489 17.75 12.75 17.75H12C11.8011 17.75 11.6103 17.671 11.4697 17.5303C11.329 17.3897 11.25 17.1989 11.25 17V12.5C11.0511 12.5 10.8603 12.421 10.7197 12.2803C10.579 12.1397 10.5 11.9489 10.5 11.75C10.5 11.5511 10.579 11.3603 10.7197 11.2197C10.8603 11.079 11.0511 11 11.25 11H12C12.1989 11 12.3897 11.079 12.5303 11.2197C12.671 11.3603 12.75 11.5511 12.75 11.75V16.25C12.9489 16.25 13.1397 16.329 13.2803 16.4697C13.421 16.6103 13.5 16.8011 13.5 17ZM10.6875 8.375C10.6875 8.1525 10.7535 7.93499 10.8771 7.74998C11.0007 7.56498 11.1764 7.42078 11.382 7.33564C11.5876 7.25049 11.8138 7.22821 12.032 7.27162C12.2502 7.31502 12.4507 7.42217 12.608 7.5795C12.7653 7.73684 12.8725 7.93729 12.9159 8.15552C12.9593 8.37375 12.937 8.59995 12.8519 8.80552C12.7667 9.01109 12.6225 9.18679 12.4375 9.3104C12.2525 9.43402 12.035 9.5 11.8125 9.5C11.5141 9.5 11.228 9.38147 11.017 9.1705C10.806 8.95952 10.6875 8.67337 10.6875 8.375Z" fill="#0F100F"/>
</g>
</svg>
