<svg width="208" height="30" viewBox="0 0 208 30" fill="none" xmlns="http://www.w3.org/2000/svg">
<g clip-path="url(#clip0_1814_10442)">
<path d="M33.7073 29.7232C33.0881 29.6507 32.522 29.3342 32.1315 28.8423C31.7146 28.3531 31.4884 27.7267 31.4953 27.0805V2.91946C31.4893 2.2735 31.7154 1.64736 32.1315 1.15771C32.5359 0.662681 33.116 0.348181 33.7471 0.281878C35.1508 0.107889 36.5631 0.0137827 37.9772 0C44.7177 0 48.0879 2.30705 48.0879 6.92114C48.1322 8.48209 47.5803 10.0002 46.547 11.1594C45.375 12.3902 43.8588 13.2282 42.2025 13.5604C42.1916 13.5587 42.1806 13.5596 42.1701 13.563C42.1597 13.5665 42.1502 13.5723 42.1425 13.5802C42.1347 13.588 42.1289 13.5976 42.1255 13.6082C42.1221 13.6187 42.1212 13.63 42.1229 13.6409C42.1229 13.6661 42.1229 13.6812 42.2025 13.6812C44.5222 14.0805 46.3266 14.9731 47.6157 16.359C48.866 17.6515 49.5611 19.3921 49.5494 21.2013C49.5895 22.3821 49.3817 23.558 48.9395 24.6514C48.4973 25.7447 47.8309 26.7305 46.9844 27.5436C45.2678 29.1812 42.3963 30 38.3699 30C36.8114 30.0101 35.2539 29.9177 33.7073 29.7232ZM33.4737 2.48154V12.5487C33.4662 12.5975 33.4702 12.6475 33.4852 12.6946C33.5002 12.7416 33.5259 12.7845 33.5602 12.8197C33.5945 12.8549 33.6364 12.8815 33.6827 12.8974C33.7289 12.9132 33.7782 12.9179 33.8266 12.9111H37.1869C40.1694 12.9111 42.4212 12.4077 43.9423 11.401C44.6673 10.9556 45.2618 10.3225 45.6647 9.56688C46.0675 8.81125 46.2639 7.96049 46.2338 7.10234C46.2338 3.49831 43.4816 1.69799 37.9772 1.70134C36.5861 1.69939 35.1974 1.81895 33.8266 2.05872C33.7282 2.06766 33.6368 2.11431 33.5712 2.18915C33.5056 2.264 33.4707 2.36138 33.4737 2.4614M33.4737 14.8993V27.4832C33.4708 27.5827 33.5059 27.6795 33.5716 27.7535C33.6373 27.8275 33.7286 27.8731 33.8266 27.8809C35.3285 28.1289 36.8482 28.2501 38.3699 28.2433C44.5338 28.2433 47.6157 25.8423 47.6157 21.0403C47.6322 20.0894 47.4017 19.1509 46.9471 18.3187C46.4926 17.4865 45.8301 16.7899 45.0259 16.2986C43.2994 15.1409 40.6864 14.5621 37.1869 14.5621H33.8266C33.593 14.5621 33.4737 14.6678 33.4737 14.8792" fill="#0F100F"/>
<path d="M54.8831 29.6023C54.2891 29.592 53.7223 29.3484 53.3022 28.923C52.8821 28.4976 52.6416 27.9237 52.6313 27.3222V2.65773C52.644 2.05701 52.8853 1.48447 53.3049 1.0596C53.7245 0.634729 54.2899 0.390371 54.8831 0.377531H68.1155C68.2276 0.375836 68.3387 0.398288 68.4416 0.443415C68.5444 0.488542 68.6366 0.555307 68.712 0.63927C68.8643 0.808361 68.9478 1.02956 68.9457 1.2584C68.9499 1.36993 68.9312 1.48112 68.891 1.58503C68.8508 1.68893 68.7898 1.7833 68.7118 1.86222C68.6339 1.94114 68.5407 2.00291 68.4381 2.04365C68.3355 2.0844 68.2257 2.10324 68.1155 2.099H54.9627C54.9141 2.09235 54.8647 2.09715 54.8183 2.11301C54.7719 2.12887 54.7297 2.15538 54.6951 2.19046C54.6604 2.22554 54.6343 2.26824 54.6186 2.31524C54.6029 2.36224 54.5982 2.41226 54.6048 2.46142V12.5285C54.5982 12.5777 54.6029 12.6277 54.6186 12.6747C54.6343 12.7217 54.6604 12.7644 54.6951 12.7995C54.7297 12.8346 54.7719 12.8611 54.8183 12.8769C54.8647 12.8928 54.9141 12.8976 54.9627 12.8909H67.3252C67.4351 12.8875 67.5446 12.9068 67.6469 12.9478C67.7492 12.9888 67.8421 13.0506 67.9198 13.1294C67.9976 13.2081 68.0586 13.3022 68.0991 13.4058C68.1396 13.5093 68.1588 13.6202 68.1553 13.7316C68.1577 13.8421 68.1383 13.9521 68.0982 14.0549C68.058 14.1578 67.998 14.2515 67.9217 14.3306C67.8438 14.4099 67.7507 14.4722 67.6481 14.5138C67.5455 14.5553 67.4356 14.5752 67.3252 14.5722H54.9627C54.7241 14.5722 54.6048 14.6779 54.6048 14.8893V27.4732C54.598 27.5221 54.6026 27.572 54.6183 27.6189C54.634 27.6657 54.6603 27.7082 54.695 27.7429C54.7298 27.7777 54.7721 27.8037 54.8186 27.8189C54.8651 27.8341 54.9144 27.8381 54.9627 27.8306H68.1155C68.2255 27.8271 68.335 27.8464 68.4372 27.8874C68.5395 27.9284 68.6324 27.9902 68.7102 28.069C68.788 28.1478 68.849 28.2418 68.8895 28.3454C68.93 28.4489 68.9491 28.5598 68.9457 28.6712C68.9493 28.9003 68.8656 29.122 68.712 29.2903C68.6375 29.3753 68.5454 29.4428 68.4424 29.488C68.3393 29.5332 68.2278 29.555 68.1155 29.552L54.8831 29.6023Z" fill="#0F100F"/>
<path d="M98.1395 29.3204C98.0002 29.4627 97.8221 29.5597 97.628 29.5989C97.4339 29.638 97.2327 29.6177 97.0501 29.5404C96.8675 29.4631 96.7119 29.3323 96.6031 29.1649C96.4943 28.9975 96.4374 28.801 96.4395 28.6006V1.58553C96.4408 1.27756 96.5622 0.982567 96.7773 0.764795C96.9923 0.547024 97.2836 0.424103 97.5878 0.422778C97.9406 0.411744 98.2895 0.499992 98.5958 0.677713C98.902 0.855434 99.1536 1.11567 99.3226 1.42949L114.295 26.552C114.294 26.5574 114.294 26.5631 114.296 26.5683C114.298 26.5736 114.301 26.5784 114.305 26.5823C114.308 26.5863 114.313 26.5892 114.318 26.5909C114.324 26.5927 114.329 26.5931 114.335 26.5922C114.364 26.5922 114.374 26.5922 114.374 26.552V1.39929C114.374 1.13229 114.479 0.876231 114.665 0.687436C114.852 0.498641 115.105 0.392578 115.368 0.392578C115.632 0.392578 115.885 0.498641 116.071 0.687436C116.258 0.876231 116.363 1.13229 116.363 1.39929V28.4395C116.361 28.7475 116.24 29.0425 116.025 29.2603C115.81 29.4781 115.519 29.601 115.214 29.6023C114.861 29.6143 114.511 29.5265 114.204 29.3487C113.896 29.1709 113.644 28.9102 113.475 28.5956L98.5074 3.47311C98.5082 3.46763 98.5078 3.46202 98.5061 3.45674C98.5044 3.45146 98.5015 3.44667 98.4976 3.44274C98.4937 3.43882 98.489 3.43588 98.4838 3.43416C98.4786 3.43244 98.473 3.43199 98.4676 3.43285C98.4378 3.43285 98.4278 3.43284 98.4278 3.47311V28.5956C98.4326 28.7285 98.4103 28.8609 98.3624 28.9847C98.3145 29.1086 98.242 29.2211 98.1495 29.3154" fill="#0F100F"/>
<path d="M131.365 29.9999C127.782 29.9999 124.898 28.6878 122.71 26.0637C120.523 23.4395 119.43 19.7482 119.43 14.9899C119.43 10.2684 120.477 6.58885 122.571 3.95127C124.666 1.31369 127.517 -0.00679694 131.126 -0.0101526C133.174 -0.0315422 135.212 0.265543 137.171 0.87072C137.444 0.932671 137.685 1.09172 137.852 1.31894C138.019 1.54617 138.1 1.8265 138.08 2.10899C138.079 2.21687 138.051 2.32271 137.999 2.41681C137.947 2.51091 137.872 2.59026 137.782 2.64757C137.706 2.7175 137.612 2.76411 137.511 2.78193C137.409 2.79975 137.305 2.78807 137.21 2.74824C135.293 2.06833 133.277 1.71787 131.245 1.71133C128.187 1.71133 125.789 2.88583 124.053 5.23482C122.316 7.58381 121.448 10.8372 121.448 14.9949C121.448 19.1291 122.349 22.3758 124.152 24.7348C125.003 25.8756 126.114 26.7915 127.39 27.4049C128.665 28.0183 130.068 28.311 131.479 28.2583C133.497 28.282 135.503 27.9429 137.404 27.2566C137.5 27.2181 137.605 27.2072 137.707 27.2249C137.808 27.2427 137.903 27.2885 137.981 27.3573C138.07 27.4159 138.143 27.4956 138.194 27.5895C138.245 27.6835 138.273 27.7887 138.274 27.8959C138.294 28.1784 138.213 28.4587 138.046 28.6859C137.879 28.9132 137.637 29.0722 137.364 29.1341C135.421 29.7375 133.397 30.0346 131.365 30.015" fill="#0F100F"/>
<path d="M170.436 29.723C169.802 29.6562 169.22 29.3398 168.815 28.8422C168.402 28.3513 168.177 27.7256 168.184 27.0804V2.91933C168.178 2.27433 168.402 1.64889 168.815 1.15758C169.21 0.669311 169.777 0.355325 170.396 0.281748C171.798 0.0871082 173.211 -0.0070845 174.626 -0.000129588C183.948 -0.000129588 188.609 4.86564 188.609 14.5972C188.609 24.8656 183.948 29.9982 174.626 29.9948C173.225 29.9853 171.826 29.8929 170.436 29.718M170.162 2.53679V27.4982C170.155 27.5923 170.183 27.6857 170.241 27.7596C170.299 27.8334 170.383 27.8821 170.475 27.8959C171.844 28.1559 173.233 28.2906 174.626 28.2985C178.755 28.2985 181.796 27.1979 183.747 24.9965C185.699 22.7952 186.674 19.3354 186.67 14.6173C186.67 10.218 185.689 6.97135 183.728 4.87739C181.766 2.78343 178.732 1.73644 174.626 1.73644C173.233 1.74255 171.844 1.87564 170.475 2.13409C170.383 2.149 170.299 2.19873 170.241 2.27337C170.183 2.34801 170.155 2.44208 170.162 2.53679Z" fill="#0F100F"/>
<path d="M193.937 29.6023C193.343 29.592 192.776 29.3484 192.356 28.923C191.936 28.4976 191.696 27.9237 191.686 27.3222V2.65772C191.698 2.05701 191.94 1.48446 192.359 1.05959C192.779 0.634722 193.344 0.390364 193.937 0.377524H207.17C207.281 0.375898 207.391 0.398416 207.493 0.443561C207.596 0.488707 207.687 0.55543 207.761 0.639263C207.917 0.806465 208.003 1.02849 208 1.2584C208.003 1.36973 207.984 1.48059 207.944 1.58416C207.903 1.68773 207.842 1.78179 207.764 1.86056C207.687 1.93932 207.594 2.00112 207.491 2.04212C207.389 2.08313 207.28 2.10248 207.17 2.09899H194.017C193.968 2.09234 193.919 2.09714 193.873 2.113C193.826 2.12886 193.784 2.15538 193.749 2.19045C193.715 2.22553 193.688 2.26823 193.673 2.31523C193.657 2.36223 193.652 2.41225 193.659 2.46141V12.5285C193.652 12.5777 193.657 12.6277 193.673 12.6747C193.688 12.7217 193.715 12.7644 193.749 12.7995C193.784 12.8346 193.826 12.8611 193.873 12.8769C193.919 12.8928 193.968 12.8976 194.017 12.8909H206.379C206.488 12.8909 206.596 12.9127 206.697 12.9549C206.798 12.9972 206.889 13.0591 206.966 13.1371C207.043 13.2152 207.105 13.3079 207.146 13.4099C207.188 13.5118 207.21 13.6212 207.21 13.7316C207.21 13.8419 207.188 13.9512 207.146 14.0532C207.105 14.1552 207.043 14.2479 206.966 14.326C206.889 14.404 206.798 14.4659 206.697 14.5082C206.596 14.5504 206.488 14.5721 206.379 14.5721H194.017C193.778 14.5721 193.659 14.6779 193.659 14.8893V27.4732C193.652 27.5221 193.657 27.572 193.673 27.6189C193.688 27.6657 193.714 27.7082 193.749 27.7429C193.784 27.7777 193.826 27.8037 193.873 27.8189C193.919 27.8341 193.969 27.8381 194.017 27.8306H207.17C207.279 27.8285 207.388 27.8488 207.49 27.8904C207.591 27.9319 207.684 27.9937 207.761 28.0722C207.839 28.1507 207.9 28.2441 207.941 28.3471C207.982 28.45 208.002 28.5602 208 28.6711C208.004 28.9013 207.918 29.1239 207.761 29.2903C207.688 29.3752 207.597 29.4426 207.494 29.4878C207.392 29.5331 207.281 29.555 207.17 29.552L193.937 29.6023Z" fill="#0F100F"/>
<path d="M142.832 26.4766C142.832 26.381 143.006 17.0186 151.596 14.1645C158.838 11.7585 159.136 3.59406 159.141 3.51855L161.155 3.57393C161.155 3.66957 160.802 13.2535 152.207 16.1024C145.009 18.4934 144.83 26.1696 144.825 26.4967L142.832 26.4766Z" fill="#0F100F"/>
<path d="M152.948 29.4061C149.667 30.2619 146.466 29.5521 143.344 27.2769C140.222 25.0018 138.542 22.1494 138.304 18.7199C138.065 15.3038 139.336 11.641 142.116 7.73163C144.897 3.82224 147.924 1.43801 151.198 0.578952C154.472 -0.276752 157.672 0.434652 160.797 2.71318C163.922 4.9917 165.602 7.84405 165.837 11.2702C166.076 14.6897 164.807 18.3508 162.03 22.2535C159.252 26.1561 156.225 28.5387 152.948 29.4011M163.973 11.4162C163.851 8.51352 162.452 6.08566 159.778 4.13264C157.103 2.17962 154.386 1.60747 151.626 2.4162C148.862 3.21821 146.224 5.386 143.712 8.91956C141.2 12.4531 140.005 15.6746 140.128 18.584C140.254 21.4934 141.652 23.9212 144.323 25.8675C146.994 27.8138 149.712 28.3877 152.476 27.589C155.239 26.7836 157.879 24.6142 160.394 21.0806C162.909 17.5471 164.102 14.3256 163.973 11.4162Z" fill="#0F100F"/>
<path d="M72.147 29.7334C72.0288 29.7398 71.911 29.7131 71.8067 29.6563C71.7024 29.5995 71.6155 29.5148 71.5555 29.4113C71.4903 29.3124 71.4492 29.1993 71.4354 29.0812C71.4215 28.9631 71.4355 28.8434 71.476 28.7318L81.1144 1.65125C81.2313 1.32124 81.4445 1.03506 81.7259 0.830773C82.0157 0.622789 82.3649 0.516704 82.72 0.528756C83.0745 0.521342 83.4223 0.627 83.7142 0.830773C84.0009 1.02603 84.2117 1.31604 84.3107 1.65125L93.9492 28.7318C93.9885 28.8436 94.0018 28.9631 93.988 29.081C93.9742 29.1988 93.9337 29.3119 93.8696 29.4113C93.8092 29.5144 93.7223 29.5988 93.618 29.6556C93.5138 29.7123 93.3963 29.7392 93.2781 29.7334C92.9662 29.7339 92.6619 29.6353 92.4082 29.4516C92.1539 29.2766 91.9607 29.0247 91.8564 28.7318L89.1274 20.809C89.0954 20.71 89.0314 20.625 88.9457 20.5674C88.86 20.5099 88.7577 20.4833 88.6552 20.4918H76.7252C76.6278 20.4878 76.5319 20.5168 76.4526 20.5743C76.3734 20.6317 76.3154 20.7143 76.2878 20.809L73.5637 28.7318C73.4874 29.0375 73.3069 29.3061 73.0541 29.4903C72.8013 29.6744 72.4924 29.7623 72.1818 29.7385M82.6504 2.3358L77.0781 18.4935C77.0656 18.5308 77.0627 18.5707 77.0696 18.6095C77.0766 18.6482 77.0932 18.6846 77.1179 18.715C77.1413 18.746 77.1714 18.7712 77.2058 18.7886C77.2403 18.806 77.2782 18.8153 77.3167 18.8157H88.1035C88.2874 18.8157 88.352 18.71 88.2973 18.4935L82.7697 2.3358C82.7697 2.31063 82.7399 2.29554 82.6902 2.29554C82.6405 2.29554 82.6504 2.29553 82.6504 2.3358Z" fill="#0F100F"/>
<path d="M27.6131 1.67627H22.7715V6.57895H27.6131V1.67627Z" fill="#0F100F"/>
<path d="M27.608 0.624023H21.7324V7.6257H28.6469V0.624023H27.608ZM27.608 6.57873H22.7664V1.67604H27.608V6.57873Z" fill="#0F100F"/>
<path d="M27.6131 1.67627H22.7715V6.57895H27.6131V1.67627Z" fill="#F8F8F8"/>
<path d="M9.88226 0.624023H8.89307V1.6257H9.88226V0.624023Z" fill="#0F100F"/>
<path d="M11.8554 0.624023H10.8662V1.6257H11.8554V0.624023Z" fill="#0F100F"/>
<path d="M12.8447 0.624023H11.8555V1.6257H12.8447V0.624023Z" fill="#0F100F"/>
<path d="M15.8071 0.624023H14.8179V1.6257H15.8071V0.624023Z" fill="#0F100F"/>
<path d="M16.7963 0.624023H15.8071V1.6257H16.7963V0.624023Z" fill="#0F100F"/>
<path d="M18.77 0.624023H17.7808V1.6257H18.77V0.624023Z" fill="#0F100F"/>
<path d="M19.7592 0.624023H18.77V1.6257H19.7592V0.624023Z" fill="#0F100F"/>
<path d="M8.89301 1.62598H7.90381V2.62765H8.89301V1.62598Z" fill="#0F100F"/>
<path d="M9.88226 1.62598H8.89307V2.62765H9.88226V1.62598Z" fill="#0F100F"/>
<path d="M14.8183 1.62598H13.8291V2.62765H14.8183V1.62598Z" fill="#0F100F"/>
<path d="M15.8071 1.62598H14.8179V2.62765H15.8071V1.62598Z" fill="#0F100F"/>
<path d="M18.77 1.62598H17.7808V2.62765H18.77V1.62598Z" fill="#0F100F"/>
<path d="M20.7485 1.62598H19.7593V2.62765H20.7485V1.62598Z" fill="#0F100F"/>
<path d="M13.829 2.62744H12.8398V3.62912H13.829V2.62744Z" fill="#0F100F"/>
<path d="M14.8183 2.62744H13.8291V3.62912H14.8183V2.62744Z" fill="#0F100F"/>
<path d="M15.8071 2.62744H14.8179V3.62912H15.8071V2.62744Z" fill="#0F100F"/>
<path d="M17.7807 2.62744H16.7915V3.62912H17.7807V2.62744Z" fill="#0F100F"/>
<path d="M18.77 2.62744H17.7808V3.62912H18.77V2.62744Z" fill="#0F100F"/>
<path d="M19.7592 2.62744H18.77V3.62912H19.7592V2.62744Z" fill="#0F100F"/>
<path d="M20.7485 2.62744H19.7593V3.62912H20.7485V2.62744Z" fill="#0F100F"/>
<path d="M9.88226 3.62939H8.89307V4.63107H9.88226V3.62939Z" fill="#0F100F"/>
<path d="M10.8662 3.62939H9.87695V4.63107H10.8662V3.62939Z" fill="#0F100F"/>
<path d="M12.8447 3.62939H11.8555V4.63107H12.8447V3.62939Z" fill="#0F100F"/>
<path d="M13.829 3.62939H12.8398V4.63107H13.829V3.62939Z" fill="#0F100F"/>
<path d="M14.8183 3.62939H13.8291V4.63107H14.8183V3.62939Z" fill="#0F100F"/>
<path d="M16.7963 3.62939H15.8071V4.63107H16.7963V3.62939Z" fill="#0F100F"/>
<path d="M18.77 3.62939H17.7808V4.63107H18.77V3.62939Z" fill="#0F100F"/>
<path d="M19.7592 3.62939H18.77V4.63107H19.7592V3.62939Z" fill="#0F100F"/>
<path d="M10.8662 4.62598H9.87695V5.62766H10.8662V4.62598Z" fill="#0F100F"/>
<path d="M12.8447 4.62598H11.8555V5.62766H12.8447V4.62598Z" fill="#0F100F"/>
<path d="M14.8183 4.62598H13.8291V5.62766H14.8183V4.62598Z" fill="#0F100F"/>
<path d="M15.8071 4.62598H14.8179V5.62766H15.8071V4.62598Z" fill="#0F100F"/>
<path d="M18.77 4.62598H17.7808V5.62766H18.77V4.62598Z" fill="#0F100F"/>
<path d="M8.89301 5.62744H7.90381V6.62912H8.89301V5.62744Z" fill="#0F100F"/>
<path d="M9.88226 5.62744H8.89307V6.62912H9.88226V5.62744Z" fill="#0F100F"/>
<path d="M13.829 5.62744H12.8398V6.62912H13.829V5.62744Z" fill="#0F100F"/>
<path d="M14.8183 5.62744H13.8291V6.62912H14.8183V5.62744Z" fill="#0F100F"/>
<path d="M15.8071 5.62744H14.8179V6.62912H15.8071V5.62744Z" fill="#0F100F"/>
<path d="M18.77 5.62744H17.7808V6.62912H18.77V5.62744Z" fill="#0F100F"/>
<path d="M19.7592 5.62744H18.77V6.62912H19.7592V5.62744Z" fill="#0F100F"/>
<path d="M8.89301 6.62939H7.90381V7.63107H8.89301V6.62939Z" fill="#0F100F"/>
<path d="M10.8662 6.62939H9.87695V7.63107H10.8662V6.62939Z" fill="#0F100F"/>
<path d="M12.8447 6.62939H11.8555V7.63107H12.8447V6.62939Z" fill="#0F100F"/>
<path d="M14.8183 6.62939H13.8291V7.63107H14.8183V6.62939Z" fill="#0F100F"/>
<path d="M16.7963 6.62939H15.8071V7.63107H16.7963V6.62939Z" fill="#0F100F"/>
<path d="M18.77 6.62939H17.7808V7.63107H18.77V6.62939Z" fill="#0F100F"/>
<path d="M20.7485 6.62939H19.7593V7.63107H20.7485V6.62939Z" fill="#0F100F"/>
<path d="M8.89301 7.63086H7.90381V8.63254H8.89301V7.63086Z" fill="#0F100F"/>
<path d="M17.7807 7.63086H16.7915V8.63254H17.7807V7.63086Z" fill="#0F100F"/>
<path d="M18.77 7.63086H17.7808V8.63254H18.77V7.63086Z" fill="#0F100F"/>
<path d="M20.7485 7.63086H19.7593V8.63254H20.7485V7.63086Z" fill="#0F100F"/>
<path d="M4.94086 8.62744H3.95166V9.62912H4.94086V8.62744Z" fill="#0F100F"/>
<path d="M5.93012 8.62744H4.94092V9.62912H5.93012V8.62744Z" fill="#0F100F"/>
<path d="M6.91449 8.62744H5.92529V9.62912H6.91449V8.62744Z" fill="#0F100F"/>
<path d="M7.90375 8.62744H6.91455V9.62912H7.90375V8.62744Z" fill="#0F100F"/>
<path d="M9.88226 8.62744H8.89307V9.62912H9.88226V8.62744Z" fill="#0F100F"/>
<path d="M10.8662 8.62744H9.87695V9.62912H10.8662V8.62744Z" fill="#0F100F"/>
<path d="M11.8554 8.62744H10.8662V9.62912H11.8554V8.62744Z" fill="#0F100F"/>
<path d="M12.8447 8.62744H11.8555V9.62912H12.8447V8.62744Z" fill="#0F100F"/>
<path d="M14.8183 8.62744H13.8291V9.62912H14.8183V8.62744Z" fill="#0F100F"/>
<path d="M18.77 8.62744H17.7808V9.62912H18.77V8.62744Z" fill="#0F100F"/>
<path d="M19.7592 8.62744H18.77V9.62912H19.7592V8.62744Z" fill="#0F100F"/>
<path d="M22.7216 8.62744H21.7324V9.62912H22.7216V8.62744Z" fill="#0F100F"/>
<path d="M23.7109 8.62744H22.7217V9.62912H23.7109V8.62744Z" fill="#0F100F"/>
<path d="M27.6577 8.62744H26.6685V9.62912H27.6577V8.62744Z" fill="#0F100F"/>
<path d="M0.989198 9.62939H0V10.6311H0.989198V9.62939Z" fill="#0F100F"/>
<path d="M2.96283 9.62939H1.97363V10.6311H2.96283V9.62939Z" fill="#0F100F"/>
<path d="M3.9516 9.62939H2.9624V10.6311H3.9516V9.62939Z" fill="#0F100F"/>
<path d="M4.94086 9.62939H3.95166V10.6311H4.94086V9.62939Z" fill="#0F100F"/>
<path d="M5.93012 9.62939H4.94092V10.6311H5.93012V9.62939Z" fill="#0F100F"/>
<path d="M7.90375 9.62939H6.91455V10.6311H7.90375V9.62939Z" fill="#0F100F"/>
<path d="M8.89301 9.62939H7.90381V10.6311H8.89301V9.62939Z" fill="#0F100F"/>
<path d="M9.88226 9.62939H8.89307V10.6311H9.88226V9.62939Z" fill="#0F100F"/>
<path d="M13.829 9.62939H12.8398V10.6311H13.829V9.62939Z" fill="#0F100F"/>
<path d="M14.8183 9.62939H13.8291V10.6311H14.8183V9.62939Z" fill="#0F100F"/>
<path d="M17.7807 9.62939H16.7915V10.6311H17.7807V9.62939Z" fill="#0F100F"/>
<path d="M19.7592 9.62939H18.77V10.6311H19.7592V9.62939Z" fill="#0F100F"/>
<path d="M20.7485 9.62939H19.7593V10.6311H20.7485V9.62939Z" fill="#0F100F"/>
<path d="M21.7324 9.62939H20.7432V10.6311H21.7324V9.62939Z" fill="#0F100F"/>
<path d="M22.7216 9.62939H21.7324V10.6311H22.7216V9.62939Z" fill="#0F100F"/>
<path d="M23.7109 9.62939H22.7217V10.6311H23.7109V9.62939Z" fill="#0F100F"/>
<path d="M24.6953 9.62939H23.7061V10.6311H24.6953V9.62939Z" fill="#0F100F"/>
<path d="M27.6577 9.62939H26.6685V10.6311H27.6577V9.62939Z" fill="#0F100F"/>
<path d="M28.6469 9.62939H27.6577V10.6311H28.6469V9.62939Z" fill="#0F100F"/>
<path d="M2.96283 10.6309H1.97363V11.6325H2.96283V10.6309Z" fill="#0F100F"/>
<path d="M3.9516 10.6309H2.9624V11.6325H3.9516V10.6309Z" fill="#0F100F"/>
<path d="M4.94086 10.6309H3.95166V11.6325H4.94086V10.6309Z" fill="#0F100F"/>
<path d="M5.93012 10.6309H4.94092V11.6325H5.93012V10.6309Z" fill="#0F100F"/>
<path d="M6.91449 10.6309H5.92529V11.6325H6.91449V10.6309Z" fill="#0F100F"/>
<path d="M8.89301 10.6309H7.90381V11.6325H8.89301V10.6309Z" fill="#0F100F"/>
<path d="M9.88226 10.6309H8.89307V11.6325H9.88226V10.6309Z" fill="#0F100F"/>
<path d="M11.8554 10.6309H10.8662V11.6325H11.8554V10.6309Z" fill="#0F100F"/>
<path d="M12.8447 10.6309H11.8555V11.6325H12.8447V10.6309Z" fill="#0F100F"/>
<path d="M18.77 10.6309H17.7808V11.6325H18.77V10.6309Z" fill="#0F100F"/>
<path d="M20.7485 10.6309H19.7593V11.6325H20.7485V10.6309Z" fill="#0F100F"/>
<path d="M21.7324 10.6309H20.7432V11.6325H21.7324V10.6309Z" fill="#0F100F"/>
<path d="M23.7109 10.6309H22.7217V11.6325H23.7109V10.6309Z" fill="#0F100F"/>
<path d="M24.6953 10.6309H23.7061V11.6325H24.6953V10.6309Z" fill="#0F100F"/>
<path d="M25.6845 10.6309H24.6953V11.6325H25.6845V10.6309Z" fill="#0F100F"/>
<path d="M26.6738 10.6309H25.6846V11.6325H26.6738V10.6309Z" fill="#0F100F"/>
<path d="M28.6469 10.6309H27.6577V11.6325H28.6469V10.6309Z" fill="#0F100F"/>
<path d="M2.96283 11.6274H1.97363V12.6291H2.96283V11.6274Z" fill="#0F100F"/>
<path d="M8.89301 11.6274H7.90381V12.6291H8.89301V11.6274Z" fill="#0F100F"/>
<path d="M11.8554 11.6274H10.8662V12.6291H11.8554V11.6274Z" fill="#0F100F"/>
<path d="M21.7324 11.6274H20.7432V12.6291H21.7324V11.6274Z" fill="#0F100F"/>
<path d="M23.7109 11.6274H22.7217V12.6291H23.7109V11.6274Z" fill="#0F100F"/>
<path d="M25.6845 11.6274H24.6953V12.6291H25.6845V11.6274Z" fill="#0F100F"/>
<path d="M27.6577 11.6274H26.6685V12.6291H27.6577V11.6274Z" fill="#0F100F"/>
<path d="M28.6469 11.6274H27.6577V12.6291H28.6469V11.6274Z" fill="#0F100F"/>
<path d="M0.989198 12.6294H0V13.6311H0.989198V12.6294Z" fill="#0F100F"/>
<path d="M1.97846 12.6294H0.989258V13.6311H1.97846V12.6294Z" fill="#0F100F"/>
<path d="M2.96283 12.6294H1.97363V13.6311H2.96283V12.6294Z" fill="#0F100F"/>
<path d="M3.9516 12.6294H2.9624V13.6311H3.9516V12.6294Z" fill="#0F100F"/>
<path d="M4.94086 12.6294H3.95166V13.6311H4.94086V12.6294Z" fill="#0F100F"/>
<path d="M5.93012 12.6294H4.94092V13.6311H5.93012V12.6294Z" fill="#0F100F"/>
<path d="M6.91449 12.6294H5.92529V13.6311H6.91449V12.6294Z" fill="#0F100F"/>
<path d="M7.90375 12.6294H6.91455V13.6311H7.90375V12.6294Z" fill="#0F100F"/>
<path d="M8.89301 12.6294H7.90381V13.6311H8.89301V12.6294Z" fill="#0F100F"/>
<path d="M11.8554 12.6294H10.8662V13.6311H11.8554V12.6294Z" fill="#0F100F"/>
<path d="M19.7592 12.6294H18.77V13.6311H19.7592V12.6294Z" fill="#0F100F"/>
<path d="M23.7109 12.6294H22.7217V13.6311H23.7109V12.6294Z" fill="#0F100F"/>
<path d="M25.6845 12.6294H24.6953V13.6311H25.6845V12.6294Z" fill="#0F100F"/>
<path d="M28.6469 12.6294H27.6577V13.6311H28.6469V12.6294Z" fill="#0F100F"/>
<path d="M0.989198 13.6309H0V14.6325H0.989198V13.6309Z" fill="#0F100F"/>
<path d="M2.96283 13.6309H1.97363V14.6325H2.96283V13.6309Z" fill="#0F100F"/>
<path d="M8.89301 13.6309H7.90381V14.6325H8.89301V13.6309Z" fill="#0F100F"/>
<path d="M9.88226 13.6309H8.89307V14.6325H9.88226V13.6309Z" fill="#0F100F"/>
<path d="M11.8554 13.6309H10.8662V14.6325H11.8554V13.6309Z" fill="#0F100F"/>
<path d="M22.7216 13.6309H21.7324V14.6325H22.7216V13.6309Z" fill="#0F100F"/>
<path d="M24.6953 13.6309H23.7061V14.6325H24.6953V13.6309Z" fill="#0F100F"/>
<path d="M26.6738 13.6309H25.6846V14.6325H26.6738V13.6309Z" fill="#0F100F"/>
<path d="M28.6469 13.6309H27.6577V14.6325H28.6469V13.6309Z" fill="#0F100F"/>
<path d="M0.989198 14.6323H0V15.634H0.989198V14.6323Z" fill="#0F100F"/>
<path d="M1.97846 14.6323H0.989258V15.634H1.97846V14.6323Z" fill="#0F100F"/>
<path d="M2.96283 14.6323H1.97363V15.634H2.96283V14.6323Z" fill="#0F100F"/>
<path d="M3.9516 14.6323H2.9624V15.634H3.9516V14.6323Z" fill="#0F100F"/>
<path d="M4.94086 14.6323H3.95166V15.634H4.94086V14.6323Z" fill="#0F100F"/>
<path d="M5.93012 14.6323H4.94092V15.634H5.93012V14.6323Z" fill="#0F100F"/>
<path d="M6.91449 14.6323H5.92529V15.634H6.91449V14.6323Z" fill="#0F100F"/>
<path d="M7.90375 14.6323H6.91455V15.634H7.90375V14.6323Z" fill="#0F100F"/>
<path d="M8.89301 14.6323H7.90381V15.634H8.89301V14.6323Z" fill="#0F100F"/>
<path d="M10.8662 14.6323H9.87695V15.634H10.8662V14.6323Z" fill="#0F100F"/>
<path d="M22.7216 14.6323H21.7324V15.634H22.7216V14.6323Z" fill="#0F100F"/>
<path d="M24.6953 14.6323H23.7061V15.634H24.6953V14.6323Z" fill="#0F100F"/>
<path d="M28.6469 14.6323H27.6577V15.634H28.6469V14.6323Z" fill="#0F100F"/>
<path d="M0.989198 15.6294H0V16.6311H0.989198V15.6294Z" fill="#0F100F"/>
<path d="M1.97846 15.6294H0.989258V16.6311H1.97846V15.6294Z" fill="#0F100F"/>
<path d="M2.96283 15.6294H1.97363V16.6311H2.96283V15.6294Z" fill="#0F100F"/>
<path d="M4.94086 15.6294H3.95166V16.6311H4.94086V15.6294Z" fill="#0F100F"/>
<path d="M5.93012 15.6294H4.94092V16.6311H5.93012V15.6294Z" fill="#0F100F"/>
<path d="M7.90375 15.6294H6.91455V16.6311H7.90375V15.6294Z" fill="#0F100F"/>
<path d="M8.89301 15.6294H7.90381V16.6311H8.89301V15.6294Z" fill="#0F100F"/>
<path d="M9.88226 15.6294H8.89307V16.6311H9.88226V15.6294Z" fill="#0F100F"/>
<path d="M19.7592 15.6294H18.77V16.6311H19.7592V15.6294Z" fill="#0F100F"/>
<path d="M22.7216 15.6294H21.7324V16.6311H22.7216V15.6294Z" fill="#0F100F"/>
<path d="M23.7109 15.6294H22.7217V16.6311H23.7109V15.6294Z" fill="#0F100F"/>
<path d="M25.6845 15.6294H24.6953V16.6311H25.6845V15.6294Z" fill="#0F100F"/>
<path d="M0.989198 16.6309H0V17.6325H0.989198V16.6309Z" fill="#0F100F"/>
<path d="M1.97846 16.6309H0.989258V17.6325H1.97846V16.6309Z" fill="#0F100F"/>
<path d="M5.93012 16.6309H4.94092V17.6325H5.93012V16.6309Z" fill="#0F100F"/>
<path d="M6.91449 16.6309H5.92529V17.6325H6.91449V16.6309Z" fill="#0F100F"/>
<path d="M7.90375 16.6309H6.91455V17.6325H7.90375V16.6309Z" fill="#0F100F"/>
<path d="M19.7592 16.6309H18.77V17.6325H19.7592V16.6309Z" fill="#0F100F"/>
<path d="M20.7485 16.6309H19.7593V17.6325H20.7485V16.6309Z" fill="#0F100F"/>
<path d="M23.7109 16.6309H22.7217V17.6325H23.7109V16.6309Z" fill="#0F100F"/>
<path d="M0.989198 17.6323H0V18.634H0.989198V17.6323Z" fill="#0F100F"/>
<path d="M1.97846 17.6323H0.989258V18.634H1.97846V17.6323Z" fill="#0F100F"/>
<path d="M2.96283 17.6323H1.97363V18.634H2.96283V17.6323Z" fill="#0F100F"/>
<path d="M9.88226 17.6323H8.89307V18.634H9.88226V17.6323Z" fill="#0F100F"/>
<path d="M10.8662 17.6323H9.87695V18.634H10.8662V17.6323Z" fill="#0F100F"/>
<path d="M19.7592 17.6323H18.77V18.634H19.7592V17.6323Z" fill="#0F100F"/>
<path d="M22.7216 17.6323H21.7324V18.634H22.7216V17.6323Z" fill="#0F100F"/>
<path d="M23.7109 17.6323H22.7217V18.634H23.7109V17.6323Z" fill="#0F100F"/>
<path d="M24.6953 17.6323H23.7061V18.634H24.6953V17.6323Z" fill="#0F100F"/>
<path d="M26.6738 17.6323H25.6846V18.634H26.6738V17.6323Z" fill="#0F100F"/>
<path d="M28.6469 17.6323H27.6577V18.634H28.6469V17.6323Z" fill="#0F100F"/>
<path d="M4.94086 18.6294H3.95166V19.6311H4.94086V18.6294Z" fill="#0F100F"/>
<path d="M5.93012 18.6294H4.94092V19.6311H5.93012V18.6294Z" fill="#0F100F"/>
<path d="M6.91449 18.6294H5.92529V19.6311H6.91449V18.6294Z" fill="#0F100F"/>
<path d="M10.8662 18.6294H9.87695V19.6311H10.8662V18.6294Z" fill="#0F100F"/>
<path d="M11.8554 18.6294H10.8662V19.6311H11.8554V18.6294Z" fill="#0F100F"/>
<path d="M18.77 18.6294H17.7808V19.6311H18.77V18.6294Z" fill="#0F100F"/>
<path d="M19.7592 18.6294H18.77V19.6311H19.7592V18.6294Z" fill="#0F100F"/>
<path d="M23.7109 18.6294H22.7217V19.6311H23.7109V18.6294Z" fill="#0F100F"/>
<path d="M24.6953 18.6294H23.7061V19.6311H24.6953V18.6294Z" fill="#0F100F"/>
<path d="M28.6469 18.6294H27.6577V19.6311H28.6469V18.6294Z" fill="#0F100F"/>
<path d="M2.96283 19.6309H1.97363V20.6325H2.96283V19.6309Z" fill="#0F100F"/>
<path d="M4.94086 19.6309H3.95166V20.6325H4.94086V19.6309Z" fill="#0F100F"/>
<path d="M5.93012 19.6309H4.94092V20.6325H5.93012V19.6309Z" fill="#0F100F"/>
<path d="M7.90375 19.6309H6.91455V20.6325H7.90375V19.6309Z" fill="#0F100F"/>
<path d="M10.8662 19.6309H9.87695V20.6325H10.8662V19.6309Z" fill="#0F100F"/>
<path d="M11.8554 19.6309H10.8662V20.6325H11.8554V19.6309Z" fill="#0F100F"/>
<path d="M12.8447 19.6309H11.8555V20.6325H12.8447V19.6309Z" fill="#0F100F"/>
<path d="M19.7592 19.6309H18.77V20.6325H19.7592V19.6309Z" fill="#0F100F"/>
<path d="M20.7485 19.6309H19.7593V20.6325H20.7485V19.6309Z" fill="#0F100F"/>
<path d="M24.6953 19.6309H23.7061V20.6325H24.6953V19.6309Z" fill="#0F100F"/>
<path d="M25.6845 19.6309H24.6953V20.6325H25.6845V19.6309Z" fill="#0F100F"/>
<path d="M27.6577 19.6309H26.6685V20.6325H27.6577V19.6309Z" fill="#0F100F"/>
<path d="M28.6469 19.6309H27.6577V20.6325H28.6469V19.6309Z" fill="#0F100F"/>
<path d="M0.989198 20.6323H0V21.634H0.989198V20.6323Z" fill="#0F100F"/>
<path d="M1.97846 20.6323H0.989258V21.634H1.97846V20.6323Z" fill="#0F100F"/>
<path d="M3.9516 20.6323H2.9624V21.634H3.9516V20.6323Z" fill="#0F100F"/>
<path d="M4.94086 20.6323H3.95166V21.634H4.94086V20.6323Z" fill="#0F100F"/>
<path d="M6.91449 20.6323H5.92529V21.634H6.91449V20.6323Z" fill="#0F100F"/>
<path d="M7.90375 20.6323H6.91455V21.634H7.90375V20.6323Z" fill="#0F100F"/>
<path d="M8.89301 20.6323H7.90381V21.634H8.89301V20.6323Z" fill="#0F100F"/>
<path d="M11.8554 20.6323H10.8662V21.634H11.8554V20.6323Z" fill="#0F100F"/>
<path d="M12.8447 20.6323H11.8555V21.634H12.8447V20.6323Z" fill="#0F100F"/>
<path d="M16.7963 20.6323H15.8071V21.634H16.7963V20.6323Z" fill="#0F100F"/>
<path d="M17.7807 20.6323H16.7915V21.634H17.7807V20.6323Z" fill="#0F100F"/>
<path d="M20.7485 20.6323H19.7593V21.634H20.7485V20.6323Z" fill="#0F100F"/>
<path d="M21.7324 20.6323H20.7432V21.634H21.7324V20.6323Z" fill="#0F100F"/>
<path d="M22.7216 20.6323H21.7324V21.634H22.7216V20.6323Z" fill="#0F100F"/>
<path d="M23.7109 20.6323H22.7217V21.634H23.7109V20.6323Z" fill="#0F100F"/>
<path d="M24.6953 20.6323H23.7061V21.634H24.6953V20.6323Z" fill="#0F100F"/>
<path d="M25.6845 20.6323H24.6953V21.634H25.6845V20.6323Z" fill="#0F100F"/>
<path d="M27.6577 20.6323H26.6685V21.634H27.6577V20.6323Z" fill="#0F100F"/>
<path d="M8.89301 21.6343H7.90381V22.636H8.89301V21.6343Z" fill="#0F100F"/>
<path d="M9.88226 21.6343H8.89307V22.636H9.88226V21.6343Z" fill="#0F100F"/>
<path d="M10.8662 21.6343H9.87695V22.636H10.8662V21.6343Z" fill="#0F100F"/>
<path d="M11.8554 21.6343H10.8662V22.636H11.8554V21.6343Z" fill="#0F100F"/>
<path d="M12.8447 21.6343H11.8555V22.636H12.8447V21.6343Z" fill="#0F100F"/>
<path d="M13.829 21.6343H12.8398V22.636H13.829V21.6343Z" fill="#0F100F"/>
<path d="M14.8183 21.6343H13.8291V22.636H14.8183V21.6343Z" fill="#0F100F"/>
<path d="M16.7963 21.6343H15.8071V22.636H16.7963V21.6343Z" fill="#0F100F"/>
<path d="M19.7592 21.6343H18.77V22.636H19.7592V21.6343Z" fill="#0F100F"/>
<path d="M20.7485 21.6343H19.7593V22.636H20.7485V21.6343Z" fill="#0F100F"/>
<path d="M24.6953 21.6343H23.7061V22.636H24.6953V21.6343Z" fill="#0F100F"/>
<path d="M26.6738 21.6343H25.6846V22.636H26.6738V21.6343Z" fill="#0F100F"/>
<path d="M28.6469 21.6343H27.6577V22.636H28.6469V21.6343Z" fill="#0F100F"/>
<path d="M8.89301 22.6309H7.90381V23.6325H8.89301V22.6309Z" fill="#0F100F"/>
<path d="M10.8662 22.6309H9.87695V23.6325H10.8662V22.6309Z" fill="#0F100F"/>
<path d="M12.8447 22.6309H11.8555V23.6325H12.8447V22.6309Z" fill="#0F100F"/>
<path d="M17.7807 22.6309H16.7915V23.6325H17.7807V22.6309Z" fill="#0F100F"/>
<path d="M19.7592 22.6309H18.77V23.6325H19.7592V22.6309Z" fill="#0F100F"/>
<path d="M20.7485 22.6309H19.7593V23.6325H20.7485V22.6309Z" fill="#0F100F"/>
<path d="M22.7216 22.6309H21.7324V23.6325H22.7216V22.6309Z" fill="#0F100F"/>
<path d="M24.6953 22.6309H23.7061V23.6325H24.6953V22.6309Z" fill="#0F100F"/>
<path d="M28.6469 22.6309H27.6577V23.6325H28.6469V22.6309Z" fill="#0F100F"/>
<path d="M8.89301 23.6323H7.90381V24.634H8.89301V23.6323Z" fill="#0F100F"/>
<path d="M11.8554 23.6323H10.8662V24.634H11.8554V23.6323Z" fill="#0F100F"/>
<path d="M12.8447 23.6323H11.8555V24.634H12.8447V23.6323Z" fill="#0F100F"/>
<path d="M15.8071 23.6323H14.8179V24.634H15.8071V23.6323Z" fill="#0F100F"/>
<path d="M16.7963 23.6323H15.8071V24.634H16.7963V23.6323Z" fill="#0F100F"/>
<path d="M17.7807 23.6323H16.7915V24.634H17.7807V23.6323Z" fill="#0F100F"/>
<path d="M19.7592 23.6323H18.77V24.634H19.7592V23.6323Z" fill="#0F100F"/>
<path d="M20.7485 23.6323H19.7593V24.634H20.7485V23.6323Z" fill="#0F100F"/>
<path d="M24.6953 23.6323H23.7061V24.634H24.6953V23.6323Z" fill="#0F100F"/>
<path d="M25.6845 23.6323H24.6953V24.634H25.6845V23.6323Z" fill="#0F100F"/>
<path d="M27.6577 23.6323H26.6685V24.634H27.6577V23.6323Z" fill="#0F100F"/>
<path d="M8.89301 24.6343H7.90381V25.636H8.89301V24.6343Z" fill="#0F100F"/>
<path d="M12.8447 24.6343H11.8555V25.636H12.8447V24.6343Z" fill="#0F100F"/>
<path d="M13.829 24.6343H12.8398V25.636H13.829V24.6343Z" fill="#0F100F"/>
<path d="M14.8183 24.6343H13.8291V25.636H14.8183V24.6343Z" fill="#0F100F"/>
<path d="M15.8071 24.6343H14.8179V25.636H15.8071V24.6343Z" fill="#0F100F"/>
<path d="M16.7963 24.6343H15.8071V25.636H16.7963V24.6343Z" fill="#0F100F"/>
<path d="M19.7592 24.6343H18.77V25.636H19.7592V24.6343Z" fill="#0F100F"/>
<path d="M20.7485 24.6343H19.7593V25.636H20.7485V24.6343Z" fill="#0F100F"/>
<path d="M21.7324 24.6343H20.7432V25.636H21.7324V24.6343Z" fill="#0F100F"/>
<path d="M22.7216 24.6343H21.7324V25.636H22.7216V24.6343Z" fill="#0F100F"/>
<path d="M23.7109 24.6343H22.7217V25.636H23.7109V24.6343Z" fill="#0F100F"/>
<path d="M24.6953 24.6343H23.7061V25.636H24.6953V24.6343Z" fill="#0F100F"/>
<path d="M27.6577 24.6343H26.6685V25.636H27.6577V24.6343Z" fill="#0F100F"/>
<path d="M28.6469 24.6343H27.6577V25.636H28.6469V24.6343Z" fill="#0F100F"/>
<path d="M9.88226 25.6357H8.89307V26.6374H9.88226V25.6357Z" fill="#0F100F"/>
<path d="M10.8662 25.6357H9.87695V26.6374H10.8662V25.6357Z" fill="#0F100F"/>
<path d="M11.8554 25.6357H10.8662V26.6374H11.8554V25.6357Z" fill="#0F100F"/>
<path d="M12.8447 25.6357H11.8555V26.6374H12.8447V25.6357Z" fill="#0F100F"/>
<path d="M15.8071 25.6357H14.8179V26.6374H15.8071V25.6357Z" fill="#0F100F"/>
<path d="M18.77 25.6357H17.7808V26.6374H18.77V25.6357Z" fill="#0F100F"/>
<path d="M23.7109 25.6357H22.7217V26.6374H23.7109V25.6357Z" fill="#0F100F"/>
<path d="M26.6738 25.6357H25.6846V26.6374H26.6738V25.6357Z" fill="#0F100F"/>
<path d="M27.6577 25.6357H26.6685V26.6374H27.6577V25.6357Z" fill="#0F100F"/>
<path d="M9.88226 26.6323H8.89307V27.634H9.88226V26.6323Z" fill="#0F100F"/>
<path d="M12.8447 26.6323H11.8555V27.634H12.8447V26.6323Z" fill="#0F100F"/>
<path d="M14.8183 26.6323H13.8291V27.634H14.8183V26.6323Z" fill="#0F100F"/>
<path d="M15.8071 26.6323H14.8179V27.634H15.8071V26.6323Z" fill="#0F100F"/>
<path d="M17.7807 26.6323H16.7915V27.634H17.7807V26.6323Z" fill="#0F100F"/>
<path d="M18.77 26.6323H17.7808V27.634H18.77V26.6323Z" fill="#0F100F"/>
<path d="M19.7592 26.6323H18.77V27.634H19.7592V26.6323Z" fill="#0F100F"/>
<path d="M20.7485 26.6323H19.7593V27.634H20.7485V26.6323Z" fill="#0F100F"/>
<path d="M21.7324 26.6323H20.7432V27.634H21.7324V26.6323Z" fill="#0F100F"/>
<path d="M25.6845 26.6323H24.6953V27.634H25.6845V26.6323Z" fill="#0F100F"/>
<path d="M27.6577 26.6323H26.6685V27.634H27.6577V26.6323Z" fill="#0F100F"/>
<path d="M28.6469 26.6323H27.6577V27.634H28.6469V26.6323Z" fill="#0F100F"/>
<path d="M9.88226 27.6343H8.89307V28.636H9.88226V27.6343Z" fill="#0F100F"/>
<path d="M10.8662 27.6343H9.87695V28.636H10.8662V27.6343Z" fill="#0F100F"/>
<path d="M11.8554 27.6343H10.8662V28.636H11.8554V27.6343Z" fill="#0F100F"/>
<path d="M12.8447 27.6343H11.8555V28.636H12.8447V27.6343Z" fill="#0F100F"/>
<path d="M14.8183 27.6343H13.8291V28.636H14.8183V27.6343Z" fill="#0F100F"/>
<path d="M16.7963 27.6343H15.8071V28.636H16.7963V27.6343Z" fill="#0F100F"/>
<path d="M18.77 27.6343H17.7808V28.636H18.77V27.6343Z" fill="#0F100F"/>
<path d="M23.7109 27.6343H22.7217V28.636H23.7109V27.6343Z" fill="#0F100F"/>
<path d="M27.6577 27.6343H26.6685V28.636H27.6577V27.6343Z" fill="#0F100F"/>
<path d="M28.6469 27.6343H27.6577V28.636H28.6469V27.6343Z" fill="#0F100F"/>
<path d="M9.88226 28.6357H8.89307V29.6374H9.88226V28.6357Z" fill="#0F100F"/>
<path d="M15.8071 28.6357H14.8179V29.6374H15.8071V28.6357Z" fill="#0F100F"/>
<path d="M16.7963 28.6357H15.8071V29.6374H16.7963V28.6357Z" fill="#0F100F"/>
<path d="M17.7807 28.6357H16.7915V29.6374H17.7807V28.6357Z" fill="#0F100F"/>
<path d="M19.7592 28.6357H18.77V29.6374H19.7592V28.6357Z" fill="#0F100F"/>
<path d="M20.7485 28.6357H19.7593V29.6374H20.7485V28.6357Z" fill="#0F100F"/>
<path d="M21.7324 28.6357H20.7432V29.6374H21.7324V28.6357Z" fill="#0F100F"/>
<path d="M22.7216 28.6357H21.7324V29.6374H22.7216V28.6357Z" fill="#0F100F"/>
<path d="M24.6953 28.6357H23.7061V29.6374H24.6953V28.6357Z" fill="#0F100F"/>
<path d="M25.6845 28.6357H24.6953V29.6374H25.6845V28.6357Z" fill="#0F100F"/>
<path d="M27.6577 28.6357H26.6685V29.6374H27.6577V28.6357Z" fill="#0F100F"/>
<path d="M5.90039 0.624023H0V7.6257H6.89456V0.624023H5.90039ZM5.90039 6.57873H1.03394V1.67604H5.90039V6.57873Z" fill="#0F100F"/>
<path d="M5.90039 22.6309H0V29.6325H6.89456V22.6309H5.90039ZM5.90039 28.5856H1.03394V23.6829H5.90039V28.5856Z" fill="#0F100F"/>
<path d="M4.93626 2.62744H1.97363V5.62744H4.93626V2.62744Z" fill="#0F100F"/>
<path d="M26.6687 2.62744H23.7061V5.62744H26.6687V2.62744Z" fill="#0F100F"/>
<path d="M5.88066 1.67627H1.03906V6.57895H5.88066V1.67627Z" fill="#0F100F"/>
<path d="M5.90039 0.624023H0V7.6257H6.89456V0.624023H5.90039ZM5.90039 6.57873H1.03394V1.67604H5.90039V6.57873Z" fill="#0F100F"/>
<path d="M5.88066 1.67627H1.03906V6.57895H5.88066V1.67627Z" fill="#F8F8F8"/>
<path d="M4.93626 2.62744H1.97363V5.62744H4.93626V2.62744Z" fill="#0F100F"/>
<path d="M5.88066 23.6831H1.03906V28.5858H5.88066V23.6831Z" fill="#0F100F"/>
<path d="M5.90039 22.6309H0V29.6325H6.89456V22.6309H5.90039ZM5.90039 28.5856H1.03394V23.6829H5.90039V28.5856Z" fill="#0F100F"/>
<path d="M5.88066 23.6831H1.03906V28.5858H5.88066V23.6831Z" fill="#F8F8F8"/>
<path d="M4.93626 24.6343H1.97363V27.6343H4.93626V24.6343Z" fill="#F8F8F8"/>
<path d="M4.93626 24.6343H1.97363V27.6343H4.93626V24.6343Z" fill="#0F100F"/>
<path d="M20.7485 12.6294H19.7593V13.6311H20.7485V12.6294Z" fill="#0F100F"/>
<path d="M11.8554 14.5015H10.8662V15.5031H11.8554V14.5015Z" fill="#0F100F"/>
<path d="M10.8662 10.6309H9.87695V11.6325H10.8662V10.6309Z" fill="#0F100F"/>
<path d="M10.8662 11.6274H9.87695V12.6291H10.8662V11.6274Z" fill="#0F100F"/>
<path d="M10.8662 12.6294H9.87695V13.6311H10.8662V12.6294Z" fill="#0F100F"/>
<path d="M10.8662 13.6309H9.87695V14.6325H10.8662V13.6309Z" fill="#0F100F"/>
<path d="M10.8662 15.6294H9.87695V16.6311H10.8662V15.6294Z" fill="#0F100F"/>
<path d="M10.8662 16.6309H9.87695V17.6325H10.8662V16.6309Z" fill="#0F100F"/>
<path d="M19.7592 11.6274H18.77V12.6291H19.7592V11.6274Z" fill="#0F100F"/>
<path d="M13.829 10.6309H12.8398V11.6325H13.829V10.6309Z" fill="#0F100F"/>
<path d="M12.8447 9.62939H11.8555V10.6311H12.8447V9.62939Z" fill="#0F100F"/>
<path d="M11.8554 9.62939H10.8662V10.6311H11.8554V9.62939Z" fill="#0F100F"/>
<path d="M10.8662 9.62939H9.87695V10.6311H10.8662V9.62939Z" fill="#0F100F"/>
<path d="M12.8447 11.6274H11.8555V12.6291H12.8447V11.6274Z" fill="#0F100F"/>
<path d="M18.77 17.6323H17.7808V18.634H18.77V17.6323Z" fill="#0F100F"/>
<path d="M17.7807 12.6294H16.7915V13.6311H17.7807V12.6294Z" fill="#0F100F"/>
<path d="M16.7963 12.6294H15.8071V13.6311H16.7963V12.6294Z" fill="#0F100F"/>
<path d="M15.8071 13.6309H14.8179V14.6325H15.8071V13.6309Z" fill="#0F100F"/>
<path d="M15.8071 14.6323H14.8179V15.634H15.8071V14.6323Z" fill="#0F100F"/>
<path d="M15.8071 15.5034H14.8179V16.5051H15.8071V15.5034Z" fill="#0F100F"/>
<path d="M14.8183 16.5H13.8291V17.5017H14.8183V16.5Z" fill="#0F100F"/>
<path d="M13.829 16.918H12.8398V17.9196H13.829V16.918Z" fill="#0F100F"/>
<path d="M17.7807 11.6274H16.7915V12.6291H17.7807V11.6274Z" fill="#0F100F"/>
<path d="M13.829 17.8037H12.8398V18.8054H13.829V17.8037Z" fill="#0F100F"/>
<path d="M15.8071 9.62939H14.8179V10.6311H15.8071V9.62939Z" fill="#0F100F"/>
<path d="M16.7963 9.62939H15.8071V10.6311H16.7963V9.62939Z" fill="#0F100F"/>
<path d="M18.77 9.62939H17.7808V10.6311H18.77V9.62939Z" fill="#0F100F"/>
<path d="M11.8554 17.5015H10.8662V18.5031H11.8554V17.5015Z" fill="#0F100F"/>
<path d="M11.8554 17.8037H10.8662V18.8054H11.8554V17.8037Z" fill="#0F100F"/>
<path d="M12.8447 18.6294H11.8555V19.6311H12.8447V18.6294Z" fill="#0F100F"/>
<path d="M17.7807 18.6294H16.7915V19.6311H17.7807V18.6294Z" fill="#0F100F"/>
<path d="M14.8183 19.6309H13.8291V20.6325H14.8183V19.6309Z" fill="#0F100F"/>
<path d="M13.829 19.6309H12.8398V20.6325H13.829V19.6309Z" fill="#0F100F"/>
<path d="M15.8071 19.6309H14.8179V20.6325H15.8071V19.6309Z" fill="#0F100F"/>
<path d="M16.7963 19.6309H15.8071V20.6325H16.7963V19.6309Z" fill="#0F100F"/>
<path d="M17.7807 19.6309H16.7915V20.6325H17.7807V19.6309Z" fill="#0F100F"/>
<path d="M18.77 19.6309H17.7808V20.6325H18.77V19.6309Z" fill="#0F100F"/>
<path d="M19.7592 10.6309H18.77V11.6325H19.7592V10.6309Z" fill="#0F100F"/>
<path d="M20.7485 13.6309H19.7593V14.6325H20.7485V13.6309Z" fill="#0F100F"/>
<path d="M20.7485 14.6323H19.7593V15.634H20.7485V14.6323Z" fill="#0F100F"/>
<path d="M20.7485 15.6294H19.7593V16.6311H20.7485V15.6294Z" fill="#0F100F"/>
<path d="M20.7485 17.6323H19.7593V18.634H20.7485V17.6323Z" fill="#0F100F"/>
<path d="M20.7485 18.6294H19.7593V19.6311H20.7485V18.6294Z" fill="#0F100F"/>
<path d="M20.7485 12.6294H19.7593V13.6311H20.7485V12.6294Z" fill="#0F100F"/>
<path d="M20.7485 11.6274H19.7593V12.6291H20.7485V11.6274Z" fill="#0F100F"/>
</g>
<defs>
<clipPath id="clip0_1814_10442">
<rect width="208" height="30" fill="white"/>
</clipPath>
</defs>
</svg>
