<svg width="25" height="24" viewBox="0 0 25 24" fill="none" xmlns="http://www.w3.org/2000/svg">
<g id="plus">
<path id="Vector" d="M23.734 13H1.26596C1.06281 13 0.867989 12.8946 0.724344 12.7071C0.580699 12.5196 0.5 12.2652 0.5 12C0.5 11.7348 0.580699 11.4804 0.724344 11.2929C0.867989 11.1054 1.06281 11 1.26596 11H23.734C23.9372 11 24.132 11.1054 24.2757 11.2929C24.4193 11.4804 24.5 11.7348 24.5 12C24.5 12.2652 24.4193 12.5196 24.2757 12.7071C24.132 12.8946 23.9372 13 23.734 13Z" fill="#F8F8F8"/>
<path id="Vector_2" d="M11.5 23.234L11.5 0.765957C11.5 0.562813 11.6054 0.367988 11.7929 0.224344C11.9804 0.0806987 12.2348 -5.53044e-08 12.5 -4.37114e-08C12.7652 -3.21184e-08 13.0196 0.0806987 13.2071 0.224344C13.3946 0.367989 13.5 0.562813 13.5 0.765957L13.5 23.234C13.5 23.4372 13.3946 23.632 13.2071 23.7757C13.0196 23.9193 12.7652 24 12.5 24C12.2348 24 11.9804 23.9193 11.7929 23.7757C11.6054 23.632 11.5 23.4372 11.5 23.234Z" fill="#F8F8F8"/>
</g>
</svg>
