<svg width="24" height="24" viewBox="0 0 24 24" fill="none" xmlns="http://www.w3.org/2000/svg">
<g id="plus">
<path id="Vector" d="M23.234 13H0.765957C0.562813 13 0.367989 12.8946 0.224344 12.7071C0.0806988 12.5196 0 12.2652 0 12C0 11.7348 0.0806988 11.4804 0.224344 11.2929C0.367989 11.1054 0.562813 11 0.765957 11H23.234C23.4372 11 23.632 11.1054 23.7757 11.2929C23.9193 11.4804 24 11.7348 24 12C24 12.2652 23.9193 12.5196 23.7757 12.7071C23.632 12.8946 23.4372 13 23.234 13Z" fill="black"/>
<path id="Vector_2" d="M11 23.234L11 0.765957C11 0.562813 11.1054 0.367988 11.2929 0.224344C11.4804 0.0806987 11.7348 -5.53044e-08 12 -4.37114e-08C12.2652 -3.21184e-08 12.5196 0.0806987 12.7071 0.224344C12.8946 0.367989 13 0.562813 13 0.765957L13 23.234C13 23.4372 12.8946 23.632 12.7071 23.7757C12.5196 23.9193 12.2652 24 12 24C11.7348 24 11.4804 23.9193 11.2929 23.7757C11.1054 23.632 11 23.4372 11 23.234Z" fill="black"/>
</g>
</svg>
