<svg width="20" height="20" viewBox="0 0 20 20" fill="none" xmlns="http://www.w3.org/2000/svg">
<g id="shopping-cart">
<path id="Vector" d="M1.875 2.5H3.02974C3.45447 2.5 3.82615 2.78555 3.93559 3.19594L4.25491 4.39341M6.25 11.875C4.86929 11.875 3.75 12.9943 3.75 14.375H16.875M6.25 11.875H15.5985C16.5328 9.9578 17.3481 7.97196 18.0348 5.92709C14.0667 4.91371 9.90876 4.375 5.625 4.375C5.16684 4.375 4.71012 4.38116 4.25491 4.39341M6.25 11.875L4.25491 4.39341M5 16.875C5 17.2202 4.72018 17.5 4.375 17.5C4.02982 17.5 3.75 17.2202 3.75 16.875C3.75 16.5298 4.02982 16.25 4.375 16.25C4.72018 16.25 5 16.5298 5 16.875ZM15.625 16.875C15.625 17.2202 15.3452 17.5 15 17.5C14.6548 17.5 14.375 17.2202 14.375 16.875C14.375 16.5298 14.6548 16.25 15 16.25C15.3452 16.25 15.625 16.5298 15.625 16.875Z" stroke="#0F100F" stroke-width="1.33" stroke-linecap="round" stroke-linejoin="round"/>
</g>
</svg>
